<svg width="24" height="27" viewBox="0 0 24 27" fill="none" xmlns="http://www.w3.org/2000/svg">
<mask id="path-1-outside-1" maskUnits="userSpaceOnUse" x="-0.495911" y="-0.0281982" width="24" height="27" fill="black">
<rect fill="white" x="-0.495911" y="-0.0281982" width="24" height="27"/>
<path fill-rule="evenodd" clip-rule="evenodd" d="M12.6011 6.01242C12.6011 8.79181 14.8623 11.0529 17.6417 11.0529C20.4211 11.0529 22.6821 8.79181 22.6821 6.01242C22.6821 3.23304 20.4211 0.971802 17.6417 0.971802C14.8623 0.971802 12.6011 3.23304 12.6011 6.01242ZM14.1132 6.01242C14.1132 4.06665 15.6959 2.48397 17.6417 2.48397C19.5873 2.48397 21.17 4.06665 21.17 6.01242C21.17 7.95801 19.5873 9.54069 17.6417 9.54069C15.6959 9.54069 14.1132 7.95801 14.1132 6.01242ZM18.9021 22.1421H14.3503C14.3602 22.1909 14.3654 22.2414 14.3654 22.2931C14.3654 24.3779 12.6689 26.0735 10.585 26.0735C8.50135 26.0735 6.80459 24.3779 6.80459 22.2931C6.80459 22.2414 6.8098 22.1909 6.81971 22.1421H2.26822C1.29543 22.1421 0.504089 21.3507 0.504089 20.3779C0.504089 19.8616 0.728921 19.3728 1.12099 19.0371C1.14628 19.0149 1.17342 18.9948 1.20166 18.9765C2.68152 17.6851 3.52843 15.8272 3.52843 13.8654V11.0528C3.52843 7.16159 6.6949 3.99604 10.5851 3.99604C10.7465 3.99604 10.9209 3.999 11.0823 4.02632C11.4944 4.0948 11.7728 4.48503 11.7041 4.89629C11.6357 5.30756 11.2384 5.58593 10.8342 5.51726C10.7687 5.50663 10.6981 5.50729 10.6311 5.50792L10.5851 5.50821C7.52869 5.50821 5.04059 7.9952 5.04059 11.0528V13.8654C5.04059 16.3011 3.97292 18.6057 2.11409 20.1872L2.10629 20.1936L2.10628 20.1936C2.09425 20.2033 2.083 20.2124 2.0696 20.2216C2.04247 20.2559 2.01626 20.3083 2.01626 20.3779C2.01626 20.5149 2.13126 20.6299 2.26822 20.6299H18.9021C19.0392 20.6299 19.1542 20.5149 19.1542 20.3779C19.1542 20.3072 19.128 20.2559 19.0998 20.2216C19.0884 20.2132 19.0781 20.2049 19.0673 20.1961C19.0638 20.1932 19.0601 20.1903 19.0564 20.1872C17.1965 18.6046 16.1299 16.3011 16.1299 13.8654V12.7667C16.1299 12.3493 16.4686 12.0106 16.886 12.0106C17.3033 12.0106 17.6421 12.3493 17.6421 12.7667V13.8654C17.6421 15.8283 18.4899 17.6871 19.9718 18.9797C19.9989 18.9977 20.0251 19.0169 20.0493 19.0382C20.4416 19.3728 20.6664 19.8616 20.6664 20.3779C20.6664 21.3507 19.8751 22.1421 18.9021 22.1421ZM8.30165 22.1421H12.8684C12.8585 22.1909 12.8533 22.2414 12.8533 22.2931C12.8533 23.5443 11.8351 24.5614 10.585 24.5614C9.33497 24.5614 8.31676 23.5443 8.31676 22.2931C8.31676 22.2414 8.31156 22.1909 8.30165 22.1421Z"/>
</mask>
<path fill-rule="evenodd" clip-rule="evenodd" d="M12.6011 6.01242C12.6011 8.79181 14.8623 11.0529 17.6417 11.0529C20.4211 11.0529 22.6821 8.79181 22.6821 6.01242C22.6821 3.23304 20.4211 0.971802 17.6417 0.971802C14.8623 0.971802 12.6011 3.23304 12.6011 6.01242ZM14.1132 6.01242C14.1132 4.06665 15.6959 2.48397 17.6417 2.48397C19.5873 2.48397 21.17 4.06665 21.17 6.01242C21.17 7.95801 19.5873 9.54069 17.6417 9.54069C15.6959 9.54069 14.1132 7.95801 14.1132 6.01242ZM18.9021 22.1421H14.3503C14.3602 22.1909 14.3654 22.2414 14.3654 22.2931C14.3654 24.3779 12.6689 26.0735 10.585 26.0735C8.50135 26.0735 6.80459 24.3779 6.80459 22.2931C6.80459 22.2414 6.8098 22.1909 6.81971 22.1421H2.26822C1.29543 22.1421 0.504089 21.3507 0.504089 20.3779C0.504089 19.8616 0.728921 19.3728 1.12099 19.0371C1.14628 19.0149 1.17342 18.9948 1.20166 18.9765C2.68152 17.6851 3.52843 15.8272 3.52843 13.8654V11.0528C3.52843 7.16159 6.6949 3.99604 10.5851 3.99604C10.7465 3.99604 10.9209 3.999 11.0823 4.02632C11.4944 4.0948 11.7728 4.48503 11.7041 4.89629C11.6357 5.30756 11.2384 5.58593 10.8342 5.51726C10.7687 5.50663 10.6981 5.50729 10.6311 5.50792L10.5851 5.50821C7.52869 5.50821 5.04059 7.9952 5.04059 11.0528V13.8654C5.04059 16.3011 3.97292 18.6057 2.11409 20.1872L2.10629 20.1936L2.10628 20.1936C2.09425 20.2033 2.083 20.2124 2.0696 20.2216C2.04247 20.2559 2.01626 20.3083 2.01626 20.3779C2.01626 20.5149 2.13126 20.6299 2.26822 20.6299H18.9021C19.0392 20.6299 19.1542 20.5149 19.1542 20.3779C19.1542 20.3072 19.128 20.2559 19.0998 20.2216C19.0884 20.2132 19.0781 20.2049 19.0673 20.1961C19.0638 20.1932 19.0601 20.1903 19.0564 20.1872C17.1965 18.6046 16.1299 16.3011 16.1299 13.8654V12.7667C16.1299 12.3493 16.4686 12.0106 16.886 12.0106C17.3033 12.0106 17.6421 12.3493 17.6421 12.7667V13.8654C17.6421 15.8283 18.4899 17.6871 19.9718 18.9797C19.9989 18.9977 20.0251 19.0169 20.0493 19.0382C20.4416 19.3728 20.6664 19.8616 20.6664 20.3779C20.6664 21.3507 19.8751 22.1421 18.9021 22.1421ZM8.30165 22.1421H12.8684C12.8585 22.1909 12.8533 22.2414 12.8533 22.2931C12.8533 23.5443 11.8351 24.5614 10.585 24.5614C9.33497 24.5614 8.31676 23.5443 8.31676 22.2931C8.31676 22.2414 8.31156 22.1909 8.30165 22.1421Z" fill="#26C296"/>
<path d="M14.3503 22.1421V21.7404H13.859L13.9567 22.222L14.3503 22.1421ZM6.81971 22.1421L7.21331 22.222L7.31108 21.7404H6.81971V22.1421ZM1.12099 19.0371L1.38226 19.3421L1.38562 19.3392L1.12099 19.0371ZM1.20166 18.9765L1.41984 19.3137L1.44403 19.2981L1.46573 19.2791L1.20166 18.9765ZM11.0823 4.02632L11.0152 4.42231L11.0164 4.42252L11.0823 4.02632ZM11.7041 4.89629L11.308 4.83015L11.308 4.83032L11.7041 4.89629ZM10.8342 5.51726L10.9014 5.12129L10.8986 5.12082L10.8342 5.51726ZM10.6311 5.50792L10.6337 5.90955L10.6349 5.90953L10.6311 5.50792ZM10.5851 5.50821V5.90985L10.5877 5.90984L10.5851 5.50821ZM2.11409 20.1872L2.36673 20.4996L2.37436 20.4931L2.11409 20.1872ZM2.10629 20.1936L1.85373 19.8813L1.83888 19.8933L1.82524 19.9066L2.10629 20.1936ZM2.10628 20.1936L2.35921 20.5056L2.37386 20.4937L2.38733 20.4805L2.10628 20.1936ZM2.0696 20.2216L1.84332 19.8898L1.79258 19.9244L1.75451 19.9725L2.0696 20.2216ZM19.0998 20.2216L19.4099 19.9664L19.3778 19.9274L19.337 19.8975L19.0998 20.2216ZM19.0673 20.1961L18.8138 20.5076L18.8138 20.5076L19.0673 20.1961ZM19.0564 20.1872L18.796 20.4932L18.8045 20.5001L19.0564 20.1872ZM19.9718 18.9797L19.7078 19.2823L19.7274 19.2994L19.749 19.3138L19.9718 18.9797ZM20.0493 19.0382L19.7843 19.34L19.7886 19.3437L20.0493 19.0382ZM12.8684 22.1421L13.262 22.222L13.3598 21.7404H12.8684V22.1421ZM8.30165 22.1421V21.7404H7.81028L7.90805 22.222L8.30165 22.1421ZM17.6417 10.6512C15.0841 10.6512 13.0027 8.56997 13.0027 6.01242H12.1994C12.1994 9.01364 14.6405 11.4545 17.6417 11.4545V10.6512ZM22.2805 6.01242C22.2805 8.56999 20.1993 10.6512 17.6417 10.6512V11.4545C20.6429 11.4545 23.0838 9.01362 23.0838 6.01242H22.2805ZM17.6417 1.37343C20.1992 1.37343 22.2805 3.45484 22.2805 6.01242H23.0838C23.0838 3.01124 20.6429 0.57017 17.6417 0.57017V1.37343ZM13.0027 6.01242C13.0027 3.45485 15.0841 1.37343 17.6417 1.37343V0.57017C14.6405 0.57017 12.1994 3.01122 12.1994 6.01242H13.0027ZM17.6417 2.08234C15.4741 2.08234 13.7116 3.84484 13.7116 6.01242H14.5149C14.5149 4.28847 15.9177 2.8856 17.6417 2.8856V2.08234ZM21.5716 6.01242C21.5716 3.84485 19.8091 2.08234 17.6417 2.08234V2.8856C19.3654 2.8856 20.7683 4.28845 20.7683 6.01242H21.5716ZM17.6417 9.94233C19.8091 9.94233 21.5716 8.17983 21.5716 6.01242H20.7683C20.7683 7.7362 19.3655 9.13906 17.6417 9.13906V9.94233ZM13.7116 6.01242C13.7116 8.17984 15.4741 9.94233 17.6417 9.94233V9.13906C15.9177 9.13906 14.5149 7.73618 14.5149 6.01242H13.7116ZM14.3503 22.5437H18.9021V21.7404H14.3503V22.5437ZM14.7671 22.2931C14.7671 22.2144 14.7591 22.1371 14.7439 22.0621L13.9567 22.222C13.9613 22.2446 13.9638 22.2684 13.9638 22.2931H14.7671ZM10.585 26.4752C12.8906 26.4752 14.7671 24.5998 14.7671 22.2931H13.9638C13.9638 24.156 12.4471 25.6719 10.585 25.6719V26.4752ZM6.40296 22.2931C6.40296 24.5998 8.27961 26.4752 10.585 26.4752V25.6719C8.72309 25.6719 7.20623 24.156 7.20623 22.2931H6.40296ZM6.42611 22.0621C6.41089 22.1371 6.40296 22.2144 6.40296 22.2931H7.20623C7.20623 22.2684 7.20871 22.2446 7.21331 22.222L6.42611 22.0621ZM2.26822 22.5437H6.81971V21.7404H2.26822V22.5437ZM0.102457 20.3779C0.102457 21.5725 1.07361 22.5437 2.26822 22.5437V21.7404C1.51725 21.7404 0.905721 21.1289 0.905721 20.3779H0.102457ZM0.859743 18.732C0.378521 19.1441 0.102457 19.7444 0.102457 20.3779H0.905721C0.905721 19.9789 1.07932 19.6015 1.38224 19.3421L0.859743 18.732ZM0.983473 18.6393C0.940972 18.6668 0.897994 18.6985 0.856365 18.7349L1.38562 19.3392C1.39457 19.3313 1.40586 19.3228 1.41984 19.3137L0.983473 18.6393ZM3.12679 13.8654C3.12679 15.7108 2.33035 17.4585 0.937585 18.6739L1.46573 19.2791C3.0327 17.9117 3.93006 15.9436 3.93006 13.8654H3.12679ZM3.12679 11.0528V13.8654H3.93006V11.0528H3.12679ZM10.5851 3.59441C6.47312 3.59441 3.12679 6.93974 3.12679 11.0528H3.93006C3.93006 7.38344 6.91668 4.39768 10.5851 4.39768V3.59441ZM11.1493 3.63032C10.9513 3.5968 10.7467 3.59441 10.5851 3.59441V4.39768C10.7463 4.39768 10.8905 4.4012 11.0152 4.42231L11.1493 3.63032ZM12.1003 4.96244C12.2055 4.3323 11.7793 3.73498 11.1481 3.63012L11.0164 4.42252C11.2096 4.45462 11.3401 4.63775 11.308 4.83015L12.1003 4.96244ZM10.7669 5.91322C11.3892 6.01892 11.9951 5.59401 12.1003 4.96226L11.308 4.83032C11.2762 5.02111 11.0877 5.15293 10.9014 5.1213L10.7669 5.91322ZM10.6349 5.90953C10.7089 5.90884 10.7442 5.90954 10.7698 5.91369L10.8986 5.12082C10.7932 5.10371 10.6873 5.10574 10.6274 5.10631L10.6349 5.90953ZM10.5877 5.90984L10.6337 5.90954L10.6286 5.1063L10.5826 5.10659L10.5877 5.90984ZM5.44223 11.0528C5.44223 8.21707 7.75046 5.90984 10.5851 5.90984V5.10658C7.30693 5.10658 4.63896 7.77334 4.63896 11.0528H5.44223ZM5.44223 13.8654V11.0528H4.63896V13.8654H5.44223ZM2.37436 20.4931C4.32255 18.8355 5.44223 16.4192 5.44223 13.8654H4.63896C4.63896 16.1829 3.62329 18.3758 1.85382 19.8814L2.37436 20.4931ZM2.35886 20.5058L2.36665 20.4995L1.86153 19.875L1.85373 19.8813L2.35886 20.5058ZM2.38733 20.4805L2.38735 20.4805L1.82524 19.9066L1.82522 19.9067L2.38733 20.4805ZM2.29589 20.5534C2.32501 20.5335 2.34855 20.5142 2.35921 20.5056L1.85334 19.8816C1.84673 19.8869 1.84435 19.8889 1.84244 19.8903C1.84115 19.8913 1.8417 19.8909 1.84332 19.8898L2.29589 20.5534ZM2.41789 20.3779C2.41789 20.4148 2.40274 20.4478 2.3847 20.4706L1.75451 19.9725C1.6822 20.064 1.61463 20.2018 1.61463 20.3779H2.41789ZM2.26822 20.2283C2.31395 20.2283 2.35104 20.2474 2.37487 20.2713C2.39871 20.2951 2.41789 20.3322 2.41789 20.3779H1.61463C1.61463 20.7367 1.90944 21.0315 2.26822 21.0315V20.2283ZM18.9021 20.2283H2.26822V21.0315H18.9021V20.2283ZM18.7526 20.3779C18.7526 20.3322 18.7718 20.2951 18.7957 20.2712C18.8195 20.2473 18.8566 20.2283 18.9021 20.2283V21.0315C19.2609 21.0315 19.5559 20.7369 19.5559 20.3779H18.7526ZM18.7896 20.4767C18.7801 20.4652 18.7704 20.4501 18.7632 20.4315C18.7557 20.4122 18.7526 20.3935 18.7526 20.3779H19.5559C19.5559 20.1997 19.4875 20.0607 19.4099 19.9664L18.7896 20.4767ZM18.8138 20.5076C18.8236 20.5156 18.8416 20.5303 18.8626 20.5457L19.337 19.8975C19.3365 19.8971 19.3352 19.8962 19.3327 19.8942C19.3298 19.8919 19.3266 19.8893 19.3208 19.8846L18.8138 20.5076ZM18.8045 20.5001C18.8073 20.5023 18.8102 20.5046 18.8138 20.5076L19.3209 19.8846C19.3174 19.8818 19.313 19.8782 19.3083 19.8744L18.8045 20.5001ZM15.7283 13.8654C15.7283 16.4192 16.8468 18.8344 18.7961 20.4931L19.3167 19.8814C17.5461 18.3747 16.5315 16.1829 16.5315 13.8654H15.7283ZM15.7283 12.7667V13.8654H16.5315V12.7667H15.7283ZM16.886 11.609C16.2468 11.609 15.7283 12.1275 15.7283 12.7667H16.5315C16.5315 12.5711 16.6904 12.4122 16.886 12.4122V11.609ZM18.0437 12.7667C18.0437 12.1275 17.5251 11.609 16.886 11.609V12.4122C17.0815 12.4122 17.2404 12.5711 17.2404 12.7667H18.0437ZM18.0437 13.8654V12.7667H17.2404V13.8654H18.0437ZM20.2358 18.677C18.841 17.4604 18.0437 15.7118 18.0437 13.8654H17.2404C17.2404 15.9448 18.1388 17.9139 19.7078 19.2823L20.2358 18.677ZM20.3143 18.7363C20.2726 18.6997 20.231 18.6698 20.1946 18.6455L19.749 19.3138C19.7668 19.3257 19.7777 19.3341 19.7843 19.34L20.3143 18.7363ZM21.068 20.3779C21.068 19.7445 20.792 19.1439 20.31 18.7326L19.7886 19.3437C20.0911 19.6018 20.2648 19.9788 20.2648 20.3779H21.068ZM18.9021 22.5437C20.0968 22.5437 21.068 21.5726 21.068 20.3779H20.2648C20.2648 21.1289 19.6533 21.7404 18.9021 21.7404V22.5437ZM12.8684 21.7404H8.30165V22.5437H12.8684V21.7404ZM13.2549 22.2931C13.2549 22.2684 13.2574 22.2446 13.262 22.222L12.4748 22.0621C12.4596 22.1371 12.4516 22.2144 12.4516 22.2931H13.2549ZM10.585 24.963C12.0568 24.963 13.2549 23.7662 13.2549 22.2931H12.4516C12.4516 23.3223 11.6134 24.1597 10.585 24.1597V24.963ZM7.91513 22.2931C7.91513 23.7662 9.11328 24.963 10.585 24.963V24.1597C9.55665 24.1597 8.7184 23.3223 8.7184 22.2931H7.91513ZM7.90805 22.222C7.91265 22.2446 7.91513 22.2684 7.91513 22.2931H8.7184C8.7184 22.2144 8.71047 22.1371 8.69525 22.0621L7.90805 22.222Z" fill="#26C296" mask="url(#path-1-outside-1)"/>
</svg>
