<svg width="14" height="14" viewBox="0 0 14 14" fill="none" xmlns="http://www.w3.org/2000/svg">
<path opacity="0.6" d="M6.82042 0.959473C3.3649 0.959473 0.582916 3.77074 0.582916 7.19697C0.582916 10.6525 3.39418 13.4345 6.82042 13.4345C10.2759 13.4345 13.0579 10.6232 13.0579 7.19697C13.0579 3.74146 10.2759 0.959473 6.82042 0.959473ZM9.6024 6.58201L6.99612 9.18829C6.82042 9.36399 6.55686 9.48113 6.32259 9.48113C6.08831 9.48113 5.82476 9.39327 5.64905 9.18829L4.03843 7.57766C3.65774 7.19697 3.65774 6.58201 4.03843 6.20131C4.41912 5.82062 5.03409 5.82062 5.41478 6.20131L6.35187 7.1384L8.25533 5.23494C8.63603 4.85425 9.25099 4.85425 9.63168 5.23494C9.98309 5.58635 9.98309 6.20132 9.6024 6.58201Z" fill="#73738D"/>
</svg>
