<svg width="18" height="17" viewBox="0 0 18 17" fill="none" xmlns="http://www.w3.org/2000/svg">
<path d="M11.7127 7.8329C12.8042 7.8329 13.6974 6.95569 13.6974 5.88368C13.6974 4.81171 12.8042 3.93446 11.7127 3.93446C10.6212 3.93446 9.72808 4.81171 9.72808 5.88368C9.72808 6.95569 10.6212 7.8329 11.7127 7.8329ZM6.42032 7.8329C7.51185 7.8329 8.40495 6.95569 8.40495 5.88368C8.40495 4.81171 7.51185 3.93446 6.42032 3.93446C5.32879 3.93446 4.43562 4.81171 4.43562 5.88368C4.43562 6.95569 5.32879 7.8329 6.42032 7.8329ZM6.42032 9.26233C4.86556 9.26233 1.78943 10.0095 1.78943 11.5364V13.2907H11.1457V11.5364C11.1457 10.0095 7.97498 9.26233 6.42032 9.26233ZM11.7127 9.61978C11.5144 9.61978 11.3773 9.61978 11.1457 9.65217C11.9067 10.2045 12.1853 10.5618 12.1853 11.5364V13.2907H16.3436V11.5364C16.3436 10.0095 13.2675 9.61978 11.7127 9.61978Z" fill="#73738D"/>
</svg>
