<svg width="13" height="12" viewBox="0 0 13 12" fill="none" xmlns="http://www.w3.org/2000/svg">
<path d="M8.1911 7.12732V7.23153C8.1911 8.01314 7.55279 8.65145 6.77118 8.65145C5.98957 8.65145 5.35125 8.01314 5.35125 7.23153V7.12732L0.843972 6.25452C0.752784 6.24149 0.661596 6.21544 0.583435 6.16333V10.0974C0.583435 11.0614 1.36504 11.843 2.32903 11.843H11.2264C12.1903 11.843 12.9719 11.0614 12.9719 10.0974V6.16333C12.8938 6.20241 12.8026 6.22846 12.7114 6.25452L8.1911 7.12732Z" fill="#73738D"/>
<path d="M11.2394 2.6333H9.6501V1.98196C9.6501 0.978893 8.82941 0.158203 7.82635 0.158203H5.716C4.71294 0.158203 3.89225 0.978893 3.89225 1.98196V2.6333H2.30298C1.35202 2.6333 0.583435 3.40188 0.583435 4.35284V5.08234C0.583435 5.31682 0.752784 5.51223 0.97424 5.56433L5.35125 6.41108C5.36428 5.6425 5.98957 5.03023 6.77118 5.03023C7.53976 5.03023 8.17807 5.6425 8.1911 6.41108L12.5551 5.56433C12.7896 5.51223 12.9589 5.31682 12.9589 5.08234V4.33981C12.9589 3.40188 12.1903 2.6333 11.2394 2.6333ZM5.23401 1.96893C5.23401 1.7084 5.45547 1.49997 5.70298 1.49997H7.82635C8.08688 1.49997 8.29531 1.72142 8.29531 1.96893V2.62027H5.23401V1.96893Z" fill="#73738D"/>
<path d="M7.48797 7.23124V6.44963C7.48797 6.05882 7.1623 5.73315 6.7715 5.73315C6.38069 5.73315 6.05502 6.05882 6.05502 6.44963V7.23124C6.05502 7.62204 6.38069 7.94771 6.7715 7.94771C7.1623 7.94771 7.48797 7.62204 7.48797 7.23124Z" fill="#73738D"/>
</svg>
