<svg width="13" height="12" viewBox="0 0 13 12" fill="none" xmlns="http://www.w3.org/2000/svg">
<path opacity="0.4" fill-rule="evenodd" clip-rule="evenodd" d="M2.28046 5.44566C2.28046 3.27666 4.03878 1.51834 6.20777 1.51834C8.37677 1.51834 10.1351 3.27666 10.1351 5.44566C10.1351 6.5008 9.71899 7.45875 9.04192 8.16438C9.02077 8.18109 9.00037 8.19921 8.98085 8.21873C8.96132 8.23826 8.9432 8.25866 8.9265 8.27981C8.22087 8.95687 7.26291 9.37297 6.20777 9.37297C4.03878 9.37297 2.28046 7.61466 2.28046 5.44566ZM9.44296 9.66097C8.54698 10.3497 7.42519 10.7591 6.20777 10.7591C3.27325 10.7591 0.894348 8.38018 0.894348 5.44566C0.894348 2.51113 3.27325 0.132233 6.20777 0.132233C9.1423 0.132233 11.5212 2.51113 11.5212 5.44566C11.5212 6.66308 11.1118 7.78487 10.4231 8.68085L12.4733 10.7311C12.744 11.0017 12.744 11.4405 12.4733 11.7112C12.2026 11.9818 11.7638 11.9818 11.4932 11.7112L9.44296 9.66097Z" fill="#73738D"/>
</svg>
