<svg width="18" height="17" viewBox="0 0 18 17" fill="none" xmlns="http://www.w3.org/2000/svg">
<path d="M4.90814 13.5658H13.2248V15.1251H4.90814V13.5658Z" fill="#1943EF"/>
<path d="M9.06599 9.40694C9.64101 9.40694 10.1056 8.94237 10.1056 8.36735C10.1056 7.79233 9.64101 7.32777 9.06599 7.32777C8.96853 7.32777 8.87107 7.34076 8.78011 7.36675L6.61322 5.78464L6.48328 5.89834L8.07189 8.06522C8.04265 8.15944 8.02641 8.26015 8.02641 8.36735C8.02641 8.94237 8.49097 9.40694 9.06599 9.40694Z" fill="#1943EF"/>
<path d="M9.0665 1.61055C5.33374 1.61055 2.3092 4.63509 2.3092 8.36784C2.3092 9.93696 2.84524 11.3794 3.74188 12.5262H5.65211L5.78206 12.3962L6.50002 11.6783L5.75607 10.9343L5.03811 11.649C4.39162 10.8596 3.99528 9.89473 3.89457 8.88763H4.90816V7.84805H3.89457C3.99528 6.84095 4.39162 5.87609 5.03811 5.08666L5.75607 5.80137L6.50002 5.05742L5.78531 4.33946C6.57474 3.69297 7.53961 3.29662 8.5467 3.19591V4.20951H9.58629V3.19591C10.5934 3.29662 11.5582 3.69297 12.3477 4.33946L11.633 5.05742L12.3769 5.80137L13.0949 5.08666C13.7414 5.87609 14.1377 6.84095 14.2384 7.84805H13.2248V8.88763H14.2384C14.1377 9.89473 13.7414 10.8596 13.0949 11.649L12.3769 10.9343L11.633 11.6783L12.3509 12.3962L12.4809 12.5262H14.3911C15.2878 11.3794 15.8238 9.93696 15.8238 8.36784C15.8238 4.63509 12.7992 1.61055 9.0665 1.61055Z" fill="#1943EF"/>
</svg>
