<svg width="18" height="18" viewBox="0 0 18 18" fill="none" xmlns="http://www.w3.org/2000/svg">
<path d="M9.0307 10.0637C11.4022 10.0831 13.3287 8.15667 13.3092 5.78187C13.2897 3.51103 11.3698 1.59105 9.10217 1.57156C6.73062 1.55207 4.80414 3.47854 4.82363 5.85334C4.84313 8.12418 6.76311 10.0442 9.0307 10.0637ZM8.9105 3.43306C10.3497 3.3421 11.5387 4.53112 11.4477 5.97354C11.373 7.16257 10.4114 8.12418 9.22237 8.20215C7.7832 8.29311 6.59417 7.10409 6.68514 5.66167C6.75986 4.47265 7.72147 3.51103 8.9105 3.43306Z" fill="#73738D"/>
<path d="M9.06598 10.5512C7.67554 10.5512 6.42154 9.96318 5.54114 9.02431C5.47942 8.95933 5.37221 8.96908 5.32673 9.04705L2.86422 13.3581C2.76351 13.5367 2.8902 13.7577 3.09812 13.7577H5.70033C5.79454 13.7577 5.88226 13.8064 5.93099 13.8876L7.19798 15.996C7.30843 16.1812 7.58132 16.1649 7.67229 15.97L9.06923 12.8968L10.0861 10.6584C10.1316 10.5609 10.0471 10.4537 9.93988 10.4732C9.65399 10.522 9.36486 10.5512 9.06598 10.5512Z" fill="#73738D"/>
<path d="M12.5914 9.02057C12.1171 9.52411 11.5388 9.9302 10.8858 10.1933C10.8533 10.2063 10.8273 10.2291 10.8143 10.2616L9.36216 13.4355C9.34591 13.4713 9.34591 13.5103 9.36216 13.546L10.4635 15.9663C10.5512 16.1612 10.8273 16.1774 10.9378 15.9923L12.2048 13.8839C12.2535 13.8027 12.3412 13.7539 12.4354 13.7539H15.0376C15.2423 13.7539 15.3722 13.533 15.2715 13.3543L12.809 9.04006C12.7603 8.96859 12.6531 8.95559 12.5914 9.02057Z" fill="#73738D"/>
</svg>
