<svg width="48" height="45" viewBox="0 0 48 45" fill="none" xmlns="http://www.w3.org/2000/svg">
<path d="M46.6488 44.6533C47.1847 44.6533 47.6191 44.2189 47.6191 43.683C47.6191 43.1472 47.1847 42.7128 46.6488 42.7128C46.1129 42.7128 45.6785 43.1472 45.6785 43.683C45.6785 44.2189 46.1129 44.6533 46.6488 44.6533Z" fill="#64CCE3"/>
<path d="M46.6488 36.2658C47.1847 36.2658 47.6191 35.8314 47.6191 35.2955C47.6191 34.7596 47.1847 34.3252 46.6488 34.3252C46.1129 34.3252 45.6785 34.7596 45.6785 35.2955C45.6785 35.8314 46.1129 36.2658 46.6488 36.2658Z" fill="#64CCE3"/>
<path d="M46.6488 27.8802C47.1847 27.8802 47.6191 27.4458 47.6191 26.9099C47.6191 26.374 47.1847 25.9396 46.6488 25.9396C46.1129 25.9396 45.6785 26.374 45.6785 26.9099C45.6785 27.4458 46.1129 27.8802 46.6488 27.8802Z" fill="#64CCE3"/>
<path d="M46.6488 19.5635C47.1847 19.5635 47.6191 19.1291 47.6191 18.5932C47.6191 18.0574 47.1847 17.623 46.6488 17.623C46.1129 17.623 45.6785 18.0574 45.6785 18.5932C45.6785 19.1291 46.1129 19.5635 46.6488 19.5635Z" fill="#64CCE3"/>
<path d="M46.6488 11.1779C47.1847 11.1779 47.6191 10.7435 47.6191 10.2077C47.6191 9.67179 47.1847 9.23738 46.6488 9.23738C46.1129 9.23738 45.6785 9.67179 45.6785 10.2077C45.6785 10.7435 46.1129 11.1779 46.6488 11.1779Z" fill="#64CCE3"/>
<path d="M46.6488 2.86127C47.1847 2.86127 47.6191 2.42686 47.6191 1.89099C47.6191 1.35512 47.1847 0.920715 46.6488 0.920715C46.1129 0.920715 45.6785 1.35512 45.6785 1.89099C45.6785 2.42686 46.1129 2.86127 46.6488 2.86127Z" fill="#64CCE3"/>
<path d="M37.7073 44.6532C38.2432 44.6532 38.6776 44.2188 38.6776 43.6829C38.6776 43.147 38.2432 42.7126 37.7073 42.7126C37.1715 42.7126 36.7371 43.147 36.7371 43.6829C36.7371 44.2188 37.1715 44.6532 37.7073 44.6532Z" fill="#64CCE3"/>
<path d="M37.7073 36.2656C38.2432 36.2656 38.6776 35.8312 38.6776 35.2954C38.6776 34.7595 38.2432 34.3251 37.7073 34.3251C37.1715 34.3251 36.7371 34.7595 36.7371 35.2954C36.7371 35.8312 37.1715 36.2656 37.7073 36.2656Z" fill="#64CCE3"/>
<path d="M37.7073 27.8801C38.2432 27.8801 38.6776 27.4456 38.6776 26.9098C38.6776 26.3739 38.2432 25.9395 37.7073 25.9395C37.1715 25.9395 36.7371 26.3739 36.7371 26.9098C36.7371 27.4456 37.1715 27.8801 37.7073 27.8801Z" fill="#64CCE3"/>
<path d="M37.7073 19.5634C38.2432 19.5634 38.6776 19.129 38.6776 18.5931C38.6776 18.0572 38.2432 17.6228 37.7073 17.6228C37.1715 17.6228 36.7371 18.0572 36.7371 18.5931C36.7371 19.129 37.1715 19.5634 37.7073 19.5634Z" fill="#64CCE3"/>
<path d="M37.7073 11.1778C38.2432 11.1778 38.6776 10.7434 38.6776 10.2075C38.6776 9.67167 38.2432 9.23726 37.7073 9.23726C37.1715 9.23726 36.7371 9.67167 36.7371 10.2075C36.7371 10.7434 37.1715 11.1778 37.7073 11.1778Z" fill="#64CCE3"/>
<path d="M37.7077 2.86121C38.2436 2.86121 38.678 2.4268 38.678 1.89093C38.678 1.35506 38.2436 0.920654 37.7077 0.920654C37.1718 0.920654 36.7374 1.35506 36.7374 1.89093C36.7374 2.4268 37.1718 2.86121 37.7077 2.86121Z" fill="#64CCE3"/>
<path d="M28.6976 44.6532C29.2335 44.6532 29.6679 44.2188 29.6679 43.6829C29.6679 43.147 29.2335 42.7126 28.6976 42.7126C28.1617 42.7126 27.7273 43.147 27.7273 43.6829C27.7273 44.2188 28.1617 44.6532 28.6976 44.6532Z" fill="#64CCE3"/>
<path d="M28.6976 36.2656C29.2335 36.2656 29.6679 35.8312 29.6679 35.2954C29.6679 34.7595 29.2335 34.3251 28.6976 34.3251C28.1617 34.3251 27.7273 34.7595 27.7273 35.2954C27.7273 35.8312 28.1617 36.2656 28.6976 36.2656Z" fill="#64CCE3"/>
<path d="M28.6976 27.8801C29.2335 27.8801 29.6679 27.4456 29.6679 26.9098C29.6679 26.3739 29.2335 25.9395 28.6976 25.9395C28.1617 25.9395 27.7273 26.3739 27.7273 26.9098C27.7273 27.4456 28.1617 27.8801 28.6976 27.8801Z" fill="#64CCE3"/>
<path d="M28.6976 19.5634C29.2335 19.5634 29.6679 19.129 29.6679 18.5931C29.6679 18.0572 29.2335 17.6228 28.6976 17.6228C28.1617 17.6228 27.7273 18.0572 27.7273 18.5931C27.7273 19.129 28.1617 19.5634 28.6976 19.5634Z" fill="#64CCE3"/>
<path d="M28.6976 11.1778C29.2335 11.1778 29.6679 10.7434 29.6679 10.2075C29.6679 9.67167 29.2335 9.23726 28.6976 9.23726C28.1617 9.23726 27.7273 9.67167 27.7273 10.2075C27.7273 10.7434 28.1617 11.1778 28.6976 11.1778Z" fill="#64CCE3"/>
<path d="M28.6981 2.86121C29.2339 2.86121 29.6684 2.4268 29.6684 1.89093C29.6684 1.35506 29.2339 0.920654 28.6981 0.920654C28.1622 0.920654 27.7278 1.35506 27.7278 1.89093C27.7278 2.4268 28.1622 2.86121 28.6981 2.86121Z" fill="#64CCE3"/>
<path d="M19.6879 44.6532C20.2238 44.6532 20.6582 44.2188 20.6582 43.6829C20.6582 43.147 20.2238 42.7126 19.6879 42.7126C19.152 42.7126 18.7176 43.147 18.7176 43.6829C18.7176 44.2188 19.152 44.6532 19.6879 44.6532Z" fill="#64CCE3"/>
<path d="M19.6879 36.2656C20.2238 36.2656 20.6582 35.8312 20.6582 35.2954C20.6582 34.7595 20.2238 34.3251 19.6879 34.3251C19.152 34.3251 18.7176 34.7595 18.7176 35.2954C18.7176 35.8312 19.152 36.2656 19.6879 36.2656Z" fill="#64CCE3"/>
<path d="M19.6879 27.8801C20.2238 27.8801 20.6582 27.4456 20.6582 26.9098C20.6582 26.3739 20.2238 25.9395 19.6879 25.9395C19.152 25.9395 18.7176 26.3739 18.7176 26.9098C18.7176 27.4456 19.152 27.8801 19.6879 27.8801Z" fill="#64CCE3"/>
<path d="M19.6879 19.5634C20.2238 19.5634 20.6582 19.129 20.6582 18.5931C20.6582 18.0572 20.2238 17.6228 19.6879 17.6228C19.152 17.6228 18.7176 18.0572 18.7176 18.5931C18.7176 19.129 19.152 19.5634 19.6879 19.5634Z" fill="#64CCE3"/>
<path d="M19.6879 11.1778C20.2238 11.1778 20.6582 10.7434 20.6582 10.2075C20.6582 9.67167 20.2238 9.23726 19.6879 9.23726C19.152 9.23726 18.7176 9.67167 18.7176 10.2075C18.7176 10.7434 19.152 11.1778 19.6879 11.1778Z" fill="#64CCE3"/>
<path d="M19.6885 2.86121C20.2244 2.86121 20.6588 2.4268 20.6588 1.89093C20.6588 1.35506 20.2244 0.920654 19.6885 0.920654C19.1527 0.920654 18.7182 1.35506 18.7182 1.89093C18.7182 2.4268 19.1527 2.86121 19.6885 2.86121Z" fill="#64CCE3"/>
<path d="M10.6782 44.6532C11.214 44.6532 11.6485 44.2188 11.6485 43.6829C11.6485 43.147 11.214 42.7126 10.6782 42.7126C10.1423 42.7126 9.7079 43.147 9.7079 43.6829C9.7079 44.2188 10.1423 44.6532 10.6782 44.6532Z" fill="#64CCE3"/>
<path d="M10.6782 36.2656C11.214 36.2656 11.6485 35.8312 11.6485 35.2954C11.6485 34.7595 11.214 34.3251 10.6782 34.3251C10.1423 34.3251 9.7079 34.7595 9.7079 35.2954C9.7079 35.8312 10.1423 36.2656 10.6782 36.2656Z" fill="#64CCE3"/>
<path d="M10.6782 27.8801C11.214 27.8801 11.6485 27.4456 11.6485 26.9098C11.6485 26.3739 11.214 25.9395 10.6782 25.9395C10.1423 25.9395 9.7079 26.3739 9.7079 26.9098C9.7079 27.4456 10.1423 27.8801 10.6782 27.8801Z" fill="#64CCE3"/>
<path d="M10.6782 19.5634C11.214 19.5634 11.6485 19.129 11.6485 18.5931C11.6485 18.0572 11.214 17.6228 10.6782 17.6228C10.1423 17.6228 9.7079 18.0572 9.7079 18.5931C9.7079 19.129 10.1423 19.5634 10.6782 19.5634Z" fill="#64CCE3"/>
<path d="M10.6782 11.1778C11.214 11.1778 11.6485 10.7434 11.6485 10.2075C11.6485 9.67167 11.214 9.23726 10.6782 9.23726C10.1423 9.23726 9.7079 9.67167 9.7079 10.2075C9.7079 10.7434 10.1423 11.1778 10.6782 11.1778Z" fill="#64CCE3"/>
<path d="M10.679 2.86121C11.2149 2.86121 11.6493 2.4268 11.6493 1.89093C11.6493 1.35506 11.2149 0.920654 10.679 0.920654C10.1431 0.920654 9.70871 1.35506 9.70871 1.89093C9.70871 2.4268 10.1431 2.86121 10.679 2.86121Z" fill="#64CCE3"/>
<path d="M1.73737 44.6532C2.27324 44.6532 2.70765 44.2188 2.70765 43.6829C2.70765 43.147 2.27324 42.7126 1.73737 42.7126C1.2015 42.7126 0.76709 43.147 0.76709 43.6829C0.76709 44.2188 1.2015 44.6532 1.73737 44.6532Z" fill="#64CCE3"/>
<path d="M1.73737 36.2656C2.27324 36.2656 2.70765 35.8312 2.70765 35.2954C2.70765 34.7595 2.27324 34.3251 1.73737 34.3251C1.2015 34.3251 0.76709 34.7595 0.76709 35.2954C0.76709 35.8312 1.2015 36.2656 1.73737 36.2656Z" fill="#64CCE3"/>
<path d="M1.73737 27.8801C2.27324 27.8801 2.70765 27.4456 2.70765 26.9098C2.70765 26.3739 2.27324 25.9395 1.73737 25.9395C1.2015 25.9395 0.76709 26.3739 0.76709 26.9098C0.76709 27.4456 1.2015 27.8801 1.73737 27.8801Z" fill="#64CCE3"/>
<path d="M1.73737 19.5634C2.27324 19.5634 2.70765 19.129 2.70765 18.5931C2.70765 18.0572 2.27324 17.6228 1.73737 17.6228C1.2015 17.6228 0.76709 18.0572 0.76709 18.5931C0.76709 19.129 1.2015 19.5634 1.73737 19.5634Z" fill="#64CCE3"/>
<path d="M1.73737 11.1778C2.27324 11.1778 2.70765 10.7434 2.70765 10.2075C2.70765 9.67167 2.27324 9.23726 1.73737 9.23726C1.2015 9.23726 0.76709 9.67167 0.76709 10.2075C0.76709 10.7434 1.2015 11.1778 1.73737 11.1778Z" fill="#64CCE3"/>
<path d="M1.73741 2.86121C2.27328 2.86121 2.70769 2.4268 2.70769 1.89093C2.70769 1.35506 2.27328 0.920654 1.73741 0.920654C1.20154 0.920654 0.767136 1.35506 0.767136 1.89093C0.767136 2.4268 1.20154 2.86121 1.73741 2.86121Z" fill="#64CCE3"/>
</svg>
