<svg width="18" height="18" viewBox="0 0 18 18" fill="none" xmlns="http://www.w3.org/2000/svg">
<g opacity="0.4">
<path d="M14.2748 9.69956C14.3092 9.497 14.3092 9.2604 14.3092 9.02383C14.3092 8.78726 14.2748 8.58467 14.2748 8.3481L15.7259 7.23321C15.8643 7.13192 15.8987 6.96302 15.7951 6.79405L14.4128 4.46266C14.3436 4.32738 14.1364 4.2601 13.998 4.32738L12.2702 5.00314C11.9246 4.73292 11.5102 4.49631 11.0955 4.32738L10.8535 2.5368C10.8191 2.40185 10.6807 2.26657 10.5079 2.26657H7.74332C7.57055 2.26657 7.43219 2.40185 7.39775 2.5368L7.12135 4.32738C6.70659 4.49631 6.32659 4.73288 5.94627 5.00314L4.21842 4.32738C4.04562 4.2601 3.87282 4.32738 3.80365 4.46266L2.42137 6.79409C2.35253 6.929 2.3869 7.13192 2.49053 7.23324L3.97652 8.3481C3.97652 8.58467 3.94208 8.78726 3.94208 9.02383C3.94208 9.2604 3.97652 9.46299 3.97652 9.69956L2.52539 10.8144C2.38699 10.9157 2.35262 11.0846 2.45619 11.2536L3.83848 13.585C3.90768 13.7203 4.11488 13.7876 4.25324 13.7203L5.98113 13.0445C6.32669 13.3147 6.74113 13.5513 7.15586 13.7203L7.43226 15.5109C7.46698 15.6798 7.60502 15.7811 7.77782 15.7811H10.5424C10.7152 15.7811 10.8536 15.6458 10.888 15.5109L11.1647 13.7203C11.5792 13.5513 11.9595 13.3148 12.3394 13.0445L14.0673 13.7203C14.2401 13.7876 14.4129 13.7203 14.4821 13.585L15.8644 11.2536C15.9335 11.1187 15.8988 10.9157 15.7952 10.8144L14.2748 9.69956ZM9.12564 11.3889C7.77779 11.3889 6.70666 10.3417 6.70666 9.02383C6.70666 7.706 7.77779 6.65878 9.12564 6.65878C10.4735 6.65878 11.5447 7.706 11.5447 9.02383C11.5447 10.3417 10.4735 11.3889 9.12564 11.3889Z" fill="#73738D"/>
</g>
</svg>
