<svg width="26" height="25" viewBox="0 0 26 25" fill="none" xmlns="http://www.w3.org/2000/svg">
<path d="M15.438 19.8126L14.7719 17.2315C14.6887 16.9262 14.3834 16.732 14.0781 16.8152C13.7728 16.8985 13.5785 17.2038 13.6618 17.5091L14.3279 20.1179C13.634 20.5064 13.1622 21.228 13.1622 22.0606C13.1622 23.3095 14.1613 24.3086 15.4102 24.3086C16.6591 24.3086 17.6582 23.3095 17.6582 22.0606C17.686 20.8394 16.6869 19.8403 15.438 19.8126Z" fill="#26C296"/>
<path d="M7.94646 13.4556L4.42181 14.6768C4.00551 14.1772 3.39494 13.8442 2.67336 13.8442C1.42447 13.8442 0.425354 14.8433 0.425354 16.0922C0.425354 17.3411 1.42447 18.3402 2.67336 18.3402C3.92225 18.3402 4.92137 17.3411 4.92137 16.0922C4.92137 15.9812 4.89361 15.8424 4.89361 15.7314L8.30726 14.538C8.61254 14.427 8.75131 14.1217 8.66805 13.8164C8.58479 13.5112 8.25175 13.3446 7.94646 13.4556Z" fill="#26C296"/>
<path d="M23.1539 11.0417C22.0993 11.0417 21.239 11.7633 20.9892 12.7069H18.2971C17.9919 12.7069 17.7143 12.9567 17.7143 13.262C17.7143 13.5673 17.9641 13.8171 18.2971 13.8171H20.9614C21.2112 14.7884 22.0993 15.4823 23.1262 15.4823C24.3751 15.4823 25.3742 14.4831 25.3742 13.2342C25.3742 11.9854 24.4028 11.0417 23.1539 11.0417Z" fill="#26C296"/>
<path d="M13.1642 16.2039C15.2488 16.2039 16.9387 14.5265 16.9387 12.4573C16.9387 10.388 15.2488 8.71057 13.1642 8.71057C11.0797 8.71057 9.3898 10.388 9.3898 12.4573C9.3898 14.5265 11.0797 16.2039 13.1642 16.2039Z" fill="#26C296"/>
<path d="M9.75037 8.26725L8.52923 7.3514C8.64024 7.07386 8.69575 6.79633 8.69575 6.49105C8.69575 5.24216 7.69664 4.24304 6.44774 4.24304C5.19885 4.24304 4.19974 5.24216 4.19974 6.49105C4.19974 7.73994 5.19885 8.73906 6.44774 8.73906C6.97505 8.73906 7.44686 8.54478 7.8354 8.26725L9.05654 9.21086C9.16755 9.29412 9.27857 9.32187 9.38958 9.32187C9.5561 9.32187 9.72262 9.23861 9.83363 9.09985C10.0557 8.82231 10.0001 8.46152 9.75037 8.26725Z" fill="#26C296"/>
<path d="M15.5256 8.48872C15.6089 8.54422 15.7199 8.57198 15.8309 8.57198C16.0252 8.57198 16.2194 8.46097 16.3304 8.29445L18.1066 5.35261C18.3564 5.43587 18.6062 5.49138 18.856 5.49138C20.1049 5.49138 21.104 4.49226 21.104 3.24337C21.104 1.99448 20.1049 0.995361 18.856 0.995361C17.6071 0.995361 16.608 1.99448 16.608 3.24337C16.608 3.79843 16.83 4.29799 17.163 4.71429L15.3591 7.71163C15.1648 7.96141 15.2481 8.3222 15.5256 8.48872Z" fill="#26C296"/>
</svg>
