<svg width="29" height="23" viewBox="0 0 29 23" fill="none" xmlns="http://www.w3.org/2000/svg">
<path d="M8.86481 11.1569C8.62793 10.7127 8.15417 10.4463 7.6508 10.4463H6.08147C6.4664 6.15281 10.0492 2.77728 14.4315 2.77728C15.8527 2.77728 17.2444 3.1326 18.488 3.84324C19.1395 4.22817 19.9685 3.99129 20.3535 3.31026C20.7384 2.65884 20.5015 1.82976 19.8205 1.44484C18.1919 0.526928 16.3265 0.0235596 14.4315 0.0235596C8.5391 0.0235596 3.74229 4.64271 3.38697 10.4166H1.72881C1.22545 10.4166 0.751687 10.6831 0.514807 11.1273C0.277928 11.5714 0.307538 12.1044 0.574027 12.5189L3.53502 17.0789C3.80151 17.4638 4.21605 17.7007 4.68981 17.7007C5.16357 17.7007 5.5781 17.4638 5.84459 17.0789L8.80559 12.5189C9.10169 12.134 9.10169 11.5714 8.86481 11.1569Z" fill="#26C296"/>
<path d="M28.2931 9.70629L25.3321 5.14636C24.8287 4.37651 23.5555 4.37651 23.0522 5.14636L20.0616 9.70629C19.7951 10.1208 19.7655 10.6538 20.0023 11.098C20.2392 11.5421 20.713 11.8086 21.2163 11.8086H22.7857C22.4007 16.102 18.8179 19.4776 14.4357 19.4776C13.044 19.4776 11.6227 19.1223 10.3791 18.4116C9.72769 18.0563 8.89861 18.2932 8.51368 18.9446C8.15836 19.596 8.39524 20.4251 9.04666 20.81C10.7048 21.7279 12.5406 22.2017 14.4357 22.2017C20.328 22.2017 25.1248 17.5825 25.5098 11.8086H27.1383C27.6417 11.8086 28.1154 11.5421 28.3523 11.098C28.5596 10.6538 28.5596 10.1208 28.2931 9.70629Z" fill="#26C296"/>
</svg>
